<?xml version="1.0" standalone="no"?><!DOCTYPE svg PUBLIC "-//W3C//DTD SVG 1.1//EN" "http://www.w3.org/Graphics/SVG/1.1/DTD/svg11.dtd"><svg t="1503536746292" class="icon" style="" viewBox="0 0 1024 1024" version="1.1" xmlns="http://www.w3.org/2000/svg" p-id="2782" xmlns:xlink="http://www.w3.org/1999/xlink" width="200" height="200"><defs><style type="text/css"></style></defs><path d="M809.984 128q34.005333 0 59.989333 25.984t25.984 59.989333l0 256-214.016 0 43.989333-171.989333-171.989333 43.989333 0-214.016 256 0zM726.016 726.016l-43.989333-171.989333 214.016 0 0 256q0 34.005333-25.984 59.989333t-59.989333 25.984l-256 0 0-214.016zM342.016 553.984l-43.989333 171.989333 171.989333-43.989333 0 214.016-256 0q-34.005333 0-59.989333-25.984t-25.984-59.989333l0-256 214.016 0zM128 214.016q0-34.005333 25.984-59.989333t59.989333-25.984l256 0 0 214.016-171.989333-43.989333 43.989333 171.989333-214.016 0 0-256z" p-id="2783" fill="#ffffff"></path></svg>